<?xml version="1.0" encoding="iso-8859-1"?>
<!-- Generator: Adobe Illustrator 19.0.0, SVG Export Plug-In . SVG Version: 6.00 Build 0)  -->
<svg version="1.1" id="Layer_1" xmlns="http://www.w3.org/2000/svg" xmlns:xlink="http://www.w3.org/1999/xlink" x="0px" y="0px"
	 viewBox="0 0 288.358 288.358" style="enable-background:new 0 0 288.358 288.358;" xml:space="preserve">
<g>
	<g>
		<g id="XMLID_27_">
			<g>
				<!-- <path style="fill:#2fa69f;" d="M259.939,48.668c6.6,0,11.951,5.415,11.951,12.079s-5.351,12.079-11.951,12.079
					c-6.568,0-11.951-5.415-11.951-12.079S253.371,48.668,259.939,48.668z"/>
				<path style="fill:#2fa69f;" d="M187.946,156.546c6.568,0,11.951,5.415,11.951,12.079s-5.383,12.079-11.951,12.079
					c-6.6,0-11.951-5.415-11.951-12.079S181.346,156.546,187.946,156.546z"/>
				<path style="fill:#2fa69f;" d="M93.588,119.54c6.6,0,11.951,5.415,11.951,12.079c0,6.664-5.351,12.079-11.951,12.079
					c-6.568,0-11.951-5.415-11.951-12.079S87.02,119.54,93.588,119.54z"/> -->
				<path style="fill:#2fa69f;" d="M259.939,32.039c15.667,0,28.419,12.88,28.419,28.708s-12.752,28.708-28.419,28.708
					c-2.211,0-4.325-0.288-6.408-0.769l-42.389,63.407c3.268,4.678,5.222,10.381,5.222,16.533c0,15.828-12.752,28.708-28.419,28.708
					s-28.419-12.88-28.419-28.708c0-0.609,0.064-1.185,0.096-1.794l-43.574-17.686c-5.19,6.792-13.329,11.182-22.46,11.182
					c-3.108,0-6.12-0.513-8.939-1.474l-34.827,49.918c4.357,5.062,7.017,11.63,7.017,18.807c0,15.86-12.752,28.74-28.419,28.74
					S0,243.438,0,227.578c0-15.828,12.752-28.708,28.419-28.708c2.595,0,5.062,0.384,7.433,1.057l35.372-50.687
					c-3.781-4.87-6.056-10.958-6.056-17.622c0-15.828,12.752-28.708,28.419-28.708s28.419,12.88,28.419,28.708
					c0,0.673-0.064,1.314-0.096,1.954l43.478,17.654c5.19-6.857,13.361-11.31,22.556-11.31c3.588,0,7.017,0.705,10.157,1.922
					l41.139-61.484c-4.774-5.158-7.722-12.015-7.722-19.608C231.52,44.919,244.272,32.039,259.939,32.039z M271.89,60.747
					c0-6.664-5.351-12.079-11.951-12.079c-6.568,0-11.951,5.415-11.951,12.079s5.383,12.079,11.951,12.079
					C266.54,72.826,271.89,67.411,271.89,60.747z M199.897,168.625c0-6.664-5.383-12.079-11.951-12.079
					c-6.6,0-11.951,5.415-11.951,12.079s5.351,12.079,11.951,12.079C194.514,180.704,199.897,175.289,199.897,168.625z
					 M105.539,131.619c0-6.664-5.351-12.079-11.951-12.079c-6.568,0-11.951,5.415-11.951,12.079s5.383,12.079,11.951,12.079
					C100.189,143.698,105.539,138.283,105.539,131.619z M40.37,227.578c0-6.632-5.351-12.047-11.951-12.047
					s-11.951,5.415-11.951,12.047c0,6.664,5.351,12.079,11.951,12.079S40.37,234.242,40.37,227.578z"/>
				<!-- <path style="fill:#2fa69f;" d="M28.419,215.531c6.6,0,11.951,5.415,11.951,12.047c0,6.664-5.351,12.079-11.951,12.079
					s-11.951-5.415-11.951-12.079C16.468,220.946,21.819,215.531,28.419,215.531z"/> -->
			</g>
		</g>
	</g>
</g>
<g>
</g>
<g>
</g>
<g>
</g>
<g>
</g>
<g>
</g>
<g>
</g>
<g>
</g>
<g>
</g>
<g>
</g>
<g>
</g>
<g>
</g>
<g>
</g>
<g>
</g>
<g>
</g>
<g>
</g>
</svg>
